<?xml version="1.0" standalone="no"?>
<!DOCTYPE svg PUBLIC "-//W3C//DTD SVG 20010904//EN"
 "http://www.w3.org/TR/2001/REC-SVG-20010904/DTD/svg10.dtd">
<svg version="1.0" xmlns="http://www.w3.org/2000/svg"
 width="512.000000pt" height="512.000000pt" viewBox="0 0 512.000000 512.000000"
 preserveAspectRatio="xMidYMid meet">
<metadata>
Created by potrace 1.14, written by Peter Selinger 2001-2017
</metadata>
<g transform="translate(0.000000,512.000000) scale(0.100000,-0.100000)"
fill="#000000" stroke="none">
<path d="M2330 4890 c-67 -9 -143 -19 -190 -26 -130 -19 -378 -97 -528 -165
-35 -16 -65 -29 -66 -29 -2 0 -48 -24 -102 -54 -519 -282 -919 -758 -1103
-1313 -50 -152 -93 -343 -108 -483 -15 -143 -7 -544 12 -602 2 -7 6 -31 9 -53
7 -50 15 -95 22 -117 3 -9 7 -25 9 -36 12 -63 77 -266 106 -329 10 -24 19 -46
19 -50 0 -14 113 -227 161 -306 339 -540 873 -919 1485 -1051 199 -43 282 -51
514 -51 194 0 278 7 421 35 109 21 308 73 344 90 11 5 56 23 100 40 95 37 245
112 341 170 69 42 195 128 204 140 3 3 15 13 27 21 12 8 50 40 85 71 217 192
355 362 515 633 109 185 219 495 258 730 3 17 7 44 10 60 14 83 20 187 20 350
0 158 -4 227 -19 325 -2 14 -7 45 -10 70 -11 71 -44 207 -75 305 -259 827
-977 1455 -1826 1599 -49 9 -108 18 -130 22 -61 9 -443 12 -505 4z"/>
</g>
</svg>
